<mxfile host="app.diagrams.net" agent="Mozilla/5.0 (Windows NT 10.0; Win64; x64) AppleWebKit/537.36 (KHTML, like Gecko) Chrome/140.0.0.0 Safari/537.36 Edg/140.0.0.0" version="28.2.3">
  <diagram name="Page-1" id="HBZVZR9sAZ8AzIMrACNZ">
    <mxGraphModel dx="1034" dy="578" grid="1" gridSize="10" guides="1" tooltips="1" connect="1" arrows="1" fold="1" page="1" pageScale="1" pageWidth="850" pageHeight="1100" math="0" shadow="0">
      <root>
        <mxCell id="0" />
        <mxCell id="1" parent="0" />
        <mxCell id="kNW38KOxD81H5aH1DLQg-1" value="Student Information System" style="rounded=0;whiteSpace=wrap;html=1;labelBackgroundColor=none;fillColor=#A8DADC;strokeColor=#457B9D;fontColor=#1D3557;" vertex="1" parent="1">
          <mxGeometry x="150" y="50" width="560" height="60" as="geometry" />
        </mxCell>
        <mxCell id="kNW38KOxD81H5aH1DLQg-36" value="" style="edgeStyle=orthogonalEdgeStyle;rounded=0;orthogonalLoop=1;jettySize=auto;html=1;labelBackgroundColor=none;fontColor=default;strokeColor=#457B9D;" edge="1" parent="1" source="kNW38KOxD81H5aH1DLQg-3" target="kNW38KOxD81H5aH1DLQg-5">
          <mxGeometry relative="1" as="geometry" />
        </mxCell>
        <mxCell id="kNW38KOxD81H5aH1DLQg-3" value="Admin&lt;div&gt;&lt;br&gt;&lt;/div&gt;" style="rounded=0;whiteSpace=wrap;html=1;labelBackgroundColor=none;fillColor=#A8DADC;strokeColor=#457B9D;fontColor=#1D3557;" vertex="1" parent="1">
          <mxGeometry x="30" y="140" width="120" height="60" as="geometry" />
        </mxCell>
        <mxCell id="kNW38KOxD81H5aH1DLQg-39" style="edgeStyle=orthogonalEdgeStyle;rounded=0;orthogonalLoop=1;jettySize=auto;html=1;exitX=0.5;exitY=1;exitDx=0;exitDy=0;entryX=0.5;entryY=0;entryDx=0;entryDy=0;labelBackgroundColor=none;fontColor=default;strokeColor=#457B9D;" edge="1" parent="1" source="kNW38KOxD81H5aH1DLQg-4" target="kNW38KOxD81H5aH1DLQg-7">
          <mxGeometry relative="1" as="geometry" />
        </mxCell>
        <mxCell id="kNW38KOxD81H5aH1DLQg-4" value="Login to system&amp;nbsp;" style="ellipse;whiteSpace=wrap;html=1;aspect=fixed;labelBackgroundColor=none;fillColor=#A8DADC;strokeColor=#457B9D;fontColor=#1D3557;" vertex="1" parent="1">
          <mxGeometry x="240" y="140" width="80" height="80" as="geometry" />
        </mxCell>
        <mxCell id="kNW38KOxD81H5aH1DLQg-37" style="edgeStyle=orthogonalEdgeStyle;rounded=0;orthogonalLoop=1;jettySize=auto;html=1;exitX=0.5;exitY=1;exitDx=0;exitDy=0;labelBackgroundColor=none;fontColor=default;strokeColor=#457B9D;" edge="1" parent="1" source="kNW38KOxD81H5aH1DLQg-5" target="kNW38KOxD81H5aH1DLQg-6">
          <mxGeometry relative="1" as="geometry" />
        </mxCell>
        <mxCell id="kNW38KOxD81H5aH1DLQg-5" value="Forget Password" style="ellipse;whiteSpace=wrap;html=1;aspect=fixed;labelBackgroundColor=none;fillColor=#A8DADC;strokeColor=#457B9D;fontColor=#1D3557;" vertex="1" parent="1">
          <mxGeometry x="50" y="250" width="80" height="80" as="geometry" />
        </mxCell>
        <mxCell id="kNW38KOxD81H5aH1DLQg-6" value="Send Email to user" style="ellipse;whiteSpace=wrap;html=1;aspect=fixed;labelBackgroundColor=none;fillColor=#A8DADC;strokeColor=#457B9D;fontColor=#1D3557;" vertex="1" parent="1">
          <mxGeometry x="50" y="380" width="80" height="80" as="geometry" />
        </mxCell>
        <mxCell id="kNW38KOxD81H5aH1DLQg-7" value="Check Credentials" style="ellipse;whiteSpace=wrap;html=1;aspect=fixed;labelBackgroundColor=none;fillColor=#A8DADC;strokeColor=#457B9D;fontColor=#1D3557;" vertex="1" parent="1">
          <mxGeometry x="240" y="270" width="80" height="80" as="geometry" />
        </mxCell>
        <mxCell id="kNW38KOxD81H5aH1DLQg-45" style="edgeStyle=orthogonalEdgeStyle;rounded=0;orthogonalLoop=1;jettySize=auto;html=1;exitX=0.5;exitY=1;exitDx=0;exitDy=0;entryX=0.5;entryY=0;entryDx=0;entryDy=0;strokeColor=#457B9D;fontColor=#1D3557;fillColor=#A8DADC;" edge="1" parent="1" source="kNW38KOxD81H5aH1DLQg-8" target="kNW38KOxD81H5aH1DLQg-10">
          <mxGeometry relative="1" as="geometry" />
        </mxCell>
        <mxCell id="kNW38KOxD81H5aH1DLQg-8" value="Check Roles of Access&amp;nbsp;" style="ellipse;whiteSpace=wrap;html=1;aspect=fixed;labelBackgroundColor=none;fillColor=#A8DADC;strokeColor=#457B9D;fontColor=#1D3557;" vertex="1" parent="1">
          <mxGeometry x="410" y="140" width="80" height="80" as="geometry" />
        </mxCell>
        <mxCell id="kNW38KOxD81H5aH1DLQg-51" style="edgeStyle=orthogonalEdgeStyle;rounded=0;orthogonalLoop=1;jettySize=auto;html=1;exitX=0.5;exitY=1;exitDx=0;exitDy=0;strokeColor=#457B9D;fontColor=#1D3557;fillColor=#A8DADC;" edge="1" parent="1" source="kNW38KOxD81H5aH1DLQg-10" target="kNW38KOxD81H5aH1DLQg-50">
          <mxGeometry relative="1" as="geometry" />
        </mxCell>
        <mxCell id="kNW38KOxD81H5aH1DLQg-10" value="Manage Modules" style="ellipse;whiteSpace=wrap;html=1;aspect=fixed;labelBackgroundColor=none;fillColor=#A8DADC;strokeColor=#457B9D;fontColor=#1D3557;" vertex="1" parent="1">
          <mxGeometry x="410" y="270" width="80" height="80" as="geometry" />
        </mxCell>
        <mxCell id="kNW38KOxD81H5aH1DLQg-16" value="Manage System Admins" style="rounded=0;whiteSpace=wrap;html=1;labelBackgroundColor=none;fillColor=#A8DADC;strokeColor=#457B9D;fontColor=#1D3557;" vertex="1" parent="1">
          <mxGeometry x="20" y="510" width="150" height="60" as="geometry" />
        </mxCell>
        <mxCell id="kNW38KOxD81H5aH1DLQg-19" value="Manage Roles of user" style="rounded=0;whiteSpace=wrap;html=1;labelBackgroundColor=none;fillColor=#A8DADC;strokeColor=#457B9D;fontColor=#1D3557;" vertex="1" parent="1">
          <mxGeometry x="205" y="510" width="150" height="60" as="geometry" />
        </mxCell>
        <mxCell id="kNW38KOxD81H5aH1DLQg-24" value="Manage Timetable Details" style="rounded=0;whiteSpace=wrap;html=1;labelBackgroundColor=none;fillColor=#A8DADC;strokeColor=#457B9D;fontColor=#1D3557;" vertex="1" parent="1">
          <mxGeometry x="600" y="130" width="210" height="60" as="geometry" />
        </mxCell>
        <mxCell id="kNW38KOxD81H5aH1DLQg-27" value="Manage Attendence Details" style="rounded=0;whiteSpace=wrap;html=1;labelBackgroundColor=none;fillColor=#A8DADC;strokeColor=#457B9D;fontColor=#1D3557;" vertex="1" parent="1">
          <mxGeometry x="600" y="220" width="210" height="60" as="geometry" />
        </mxCell>
        <mxCell id="kNW38KOxD81H5aH1DLQg-28" value="Manage Class Details" style="rounded=0;whiteSpace=wrap;html=1;labelBackgroundColor=none;fillColor=#A8DADC;strokeColor=#457B9D;fontColor=#1D3557;" vertex="1" parent="1">
          <mxGeometry x="600" y="310" width="210" height="60" as="geometry" />
        </mxCell>
        <mxCell id="kNW38KOxD81H5aH1DLQg-29" value="Manage Student Details" style="rounded=0;whiteSpace=wrap;html=1;labelBackgroundColor=none;fillColor=#A8DADC;strokeColor=#457B9D;fontColor=#1D3557;" vertex="1" parent="1">
          <mxGeometry x="600" y="400" width="210" height="60" as="geometry" />
        </mxCell>
        <mxCell id="kNW38KOxD81H5aH1DLQg-32" value="Manage Free Details" style="rounded=0;whiteSpace=wrap;html=1;labelBackgroundColor=none;fillColor=#A8DADC;strokeColor=#457B9D;fontColor=#1D3557;" vertex="1" parent="1">
          <mxGeometry x="600" y="500" width="210" height="60" as="geometry" />
        </mxCell>
        <mxCell id="kNW38KOxD81H5aH1DLQg-33" value="Manage Teacher Profiles" style="rounded=0;whiteSpace=wrap;html=1;labelBackgroundColor=none;fillColor=#A8DADC;strokeColor=#457B9D;fontColor=#1D3557;" vertex="1" parent="1">
          <mxGeometry x="600" y="580" width="210" height="60" as="geometry" />
        </mxCell>
        <mxCell id="kNW38KOxD81H5aH1DLQg-34" value="Manage Report" style="rounded=0;whiteSpace=wrap;html=1;labelBackgroundColor=none;fillColor=#A8DADC;strokeColor=#457B9D;fontColor=#1D3557;" vertex="1" parent="1">
          <mxGeometry x="600" y="660" width="210" height="60" as="geometry" />
        </mxCell>
        <mxCell id="kNW38KOxD81H5aH1DLQg-35" style="edgeStyle=orthogonalEdgeStyle;rounded=0;orthogonalLoop=1;jettySize=auto;html=1;exitX=1;exitY=0.5;exitDx=0;exitDy=0;entryX=0.045;entryY=0.365;entryDx=0;entryDy=0;entryPerimeter=0;labelBackgroundColor=none;fontColor=default;strokeColor=#457B9D;" edge="1" parent="1" source="kNW38KOxD81H5aH1DLQg-3" target="kNW38KOxD81H5aH1DLQg-4">
          <mxGeometry relative="1" as="geometry" />
        </mxCell>
        <mxCell id="kNW38KOxD81H5aH1DLQg-44" style="edgeStyle=orthogonalEdgeStyle;rounded=0;orthogonalLoop=1;jettySize=auto;html=1;exitX=1;exitY=0;exitDx=0;exitDy=0;entryX=0;entryY=0.625;entryDx=0;entryDy=0;entryPerimeter=0;strokeColor=#457B9D;fontColor=#1D3557;fillColor=#A8DADC;" edge="1" parent="1" source="kNW38KOxD81H5aH1DLQg-7" target="kNW38KOxD81H5aH1DLQg-8">
          <mxGeometry relative="1" as="geometry" />
        </mxCell>
        <mxCell id="kNW38KOxD81H5aH1DLQg-50" value="Manage User Permission&lt;div&gt;&lt;br&gt;&lt;/div&gt;" style="rounded=0;whiteSpace=wrap;html=1;strokeColor=#457B9D;fontColor=#1D3557;fillColor=#A8DADC;" vertex="1" parent="1">
          <mxGeometry x="390" y="510" width="140" height="60" as="geometry" />
        </mxCell>
        <mxCell id="kNW38KOxD81H5aH1DLQg-54" value="" style="edgeStyle=none;orthogonalLoop=1;jettySize=auto;html=1;rounded=0;strokeColor=#457B9D;fontColor=#1D3557;fillColor=#A8DADC;entryX=0;entryY=0.75;entryDx=0;entryDy=0;" edge="1" parent="1" target="kNW38KOxD81H5aH1DLQg-24">
          <mxGeometry width="100" relative="1" as="geometry">
            <mxPoint x="460" y="280" as="sourcePoint" />
            <mxPoint x="560" y="280" as="targetPoint" />
            <Array as="points" />
          </mxGeometry>
        </mxCell>
        <mxCell id="kNW38KOxD81H5aH1DLQg-56" value="" style="edgeStyle=none;orthogonalLoop=1;jettySize=auto;html=1;rounded=0;strokeColor=#457B9D;fontColor=#1D3557;fillColor=#A8DADC;entryX=0;entryY=0.25;entryDx=0;entryDy=0;" edge="1" parent="1" target="kNW38KOxD81H5aH1DLQg-27">
          <mxGeometry width="100" relative="1" as="geometry">
            <mxPoint x="480" y="280" as="sourcePoint" />
            <mxPoint x="580" y="280" as="targetPoint" />
            <Array as="points" />
          </mxGeometry>
        </mxCell>
        <mxCell id="kNW38KOxD81H5aH1DLQg-57" value="" style="edgeStyle=none;orthogonalLoop=1;jettySize=auto;html=1;rounded=0;strokeColor=#457B9D;fontColor=#1D3557;fillColor=#A8DADC;entryX=-0.006;entryY=0.147;entryDx=0;entryDy=0;entryPerimeter=0;" edge="1" parent="1" target="kNW38KOxD81H5aH1DLQg-28">
          <mxGeometry width="100" relative="1" as="geometry">
            <mxPoint x="470" y="320" as="sourcePoint" />
            <mxPoint x="570" y="320" as="targetPoint" />
            <Array as="points" />
          </mxGeometry>
        </mxCell>
      </root>
    </mxGraphModel>
  </diagram>
</mxfile>
